<?xml version="1.0" encoding="UTF-8"?>
<!DOCTYPE svg PUBLIC "-//W3C//DTD SVG 1.1//EN" "http://www.w3.org/Graphics/SVG/1.1/DTD/svg11.dtd">
<!-- Creator: CorelDRAW -->
<svg xmlns="http://www.w3.org/2000/svg" xml:space="preserve" width="1.70666in" height="1.70666in" style="shape-rendering:geometricPrecision; text-rendering:geometricPrecision; image-rendering:optimizeQuality; fill-rule:evenodd; clip-rule:evenodd"
viewBox="0 0 1.70666 1.70666"
 xmlns:xlink="http://www.w3.org/1999/xlink">
 <defs>
  <style type="text/css">
   <![CDATA[
    .fil0 {fill:black}
   ]]>
  </style>
 </defs>
 <g id="Layer_x0020_1">
  <metadata id="CorelCorpID_0Corel-Layer"/>
  <path class="fil0" d="M0.535906 0.775697l0.0353386 0 0.0618583 0.17337 -0.0401181 0 -0.0131378 -0.0388189 -0.0527717 0 -0.0128976 0.0388189 -0.0401299 0 0.0618583 -0.17337zm0.0374764 0.106957l-0.019811 -0.0612953 -0.0203071 0.0612953 0.0401181 0z"/>
  <polygon class="fil0" points="0.666504,0.949067 0.666504,0.775697 0.705661,0.775697 0.705661,0.913917 0.787783,0.913917 0.787783,0.949087 0.666504,0.949087 "/>
  <polygon class="fil0" points="0.942047,0.913917 0.942047,0.949087 0.822882,0.949087 0.822882,0.77572 0.939866,0.77572 0.939866,0.810894 0.862063,0.810894 0.862063,0.844594 0.928909,0.844594 0.928909,0.877071 0.862063,0.877071 0.862063,0.913953 0.942047,0.913953 "/>
  <path class="fil0" d="M0.982642 0.949067l0 -0.17337 0.0764055 0c0.00794882,0 0.015311,0.00170866 0.0220827,0.0051378 0.00674409,0.00340551 0.0126024,0.00788583 0.0175276,0.0134331 0.00495276,0.00554331 0.0087874,0.0118189 0.0115866,0.0188071 0.00279134,0.00700787 0.00419291,0.0140748 0.00419291,0.0212323 0,0.00538189 -0.000637795,0.0105591 -0.00191339,0.0155 -0.00127559,0.00497638 -0.00309449,0.0096378 -0.00549606,0.0140433 -0.00237795,0.00440157 -0.00529134,0.00835433 -0.00872441,0.0118346 -0.00343307,0.00350394 -0.00726772,0.00647638 -0.0115827,0.0089252l0.0372362 0.0644685 -0.0441654 7.87402e-006 -0.0324646 -0.0559094 -0.0255354 0 0 0.0559094 -0.0391496 0 0 -1.9685e-005zm0.0391496 -0.0908386l0.0357992 0c0.00461024,0 0.00860236,-0.00222047 0.0119606,-0.00670079 0.00333858,-0.00448425 0.00501181,-0.0102126 0.00501181,-0.0172205 0,-0.00715748 -0.00191732,-0.0128622 -0.00572835,-0.0170984 -0.00381102,-0.00423622 -0.00794488,-0.0063622 -0.0124213,-0.0063622l-0.0345984 7.87402e-006 0 0.047374 -2.3622e-005 0z"/>
  <polygon class="fil0" points="1.28587,0.81087 1.2343,0.81087 1.2343,0.949087 1.19514,0.949087 1.19514,0.81087 1.14331,0.81087 1.14331,0.775697 1.28587,0.775697 "/>
  <path class="fil0" d="M1.57233 1.05303l-1.38473 0c-0.00977953,0 -0.017752,-0.00813386 -0.017752,-0.0181535l0 -0.344957c0,-0.0100236 0.00794882,-0.0181496 0.017752,-0.0181496l1.38473 -7.87402e-006c0.00980315,0 0.017748,0.00813386 0.017748,0.0181496l0 0.344957c-1.9685e-005,0.0100354 -0.00794488,0.0181614 -0.017748,0.0181614zm-1.36696 -0.036315l1.34919 0 0 -0.308642 -1.34919 0 0 0.308642z"/>
  <path class="fil0" d="M1.07524 1.12565c-0.0489409,0 -0.0887559,-0.0407323 -0.0887559,-0.0907756 0,-0.0100276 0.0079252,-0.0181535 0.017748,-0.0181535 0.00982677,0 0.0177717,0.00813386 0.0177717,0.0181535 0,0.0300354 0.023878,0.0544646 0.053248,0.0544646 0.029374,0 0.053248,-0.0244291 0.053248,-0.0544646 0,-0.0100276 0.00794882,-0.0181535 0.0177717,-0.0181535 0.00982677,0 0.017752,0.00813386 0.017752,0.0181535 -7.87402e-006,0.0500433 -0.0398465,0.0907756 -0.0887835,0.0907756z"/>
  <path class="fil0" d="M0.608343 1.13474c-0.00374803,0 -0.00748425,-0.00120079 -0.0107008,-0.00366535 -0.00782677,-0.00605512 -0.00936614,-0.0174213 -0.00345669,-0.0254331l0.0603425 -0.0817126c0.00593307,-0.00800787 0.0170551,-0.00957874 0.0248819,-0.00353937 0.00782283,0.00605118 0.0093622,0.0174173 0.00345669,0.0254291l-0.0603425 0.0817126c-0.00348031,0.00472047 -0.00880709,0.00720866 -0.0141811,0.00720866z"/>
  <path class="fil0" d="M0.991803 1.23459l-0.0940827 0c-0.00980315,0 -0.0177717,-0.00812992 -0.0177717,-0.0181496 0,-0.0100197 0.00794488,-0.0181535 0.0177717,-0.0181535l0.0940827 -7.87402e-006c0.00979921,0 0.017748,0.00813386 0.017748,0.0181535 0,0.0100197 -0.0079252,0.0181575 -0.017748,0.0181575z"/>
  <path class="fil0" d="M1.00426 0.60276c-0.00481496,0 -0.0096063,-0.00199213 -0.0131142,-0.00590551 -0.00661024,-0.0073937 -0.00611417,-0.0188898 0.0011378,-0.0256535l0.0621378 -0.0581142c0.00720866,-0.00676378 0.0184685,-0.00625591 0.0250787,0.00116142 0.00661024,0.0073937 0.00611024,0.0188937 -0.00114173,0.0256535l-0.0621142 0.0580945c-0.00343307,0.00320079 -0.00772835,0.00476378 -0.0119843,0.00476378z"/>
  <path class="fil0" d="M1.20716 0.436201c-0.00399213,0 -0.00800787,-0.0013622 -0.0113189,-0.00419685 -0.0795709,-0.0676102 -0.175909,-0.108827 -0.278531,-0.119224 -0.00976772,-0.000980315 -0.0168898,-0.00988189 -0.0159331,-0.0198701 0.000984252,-0.00998031 0.00966929,-0.0172835 0.0194252,-0.0162795 0.10974,0.0111024 0.212681,0.0551575 0.297748,0.127409 0.00752362,0.00640157 0.00856299,0.0178543 0.00229134,0.0255551 -0.00353937,0.00436614 -0.00857087,0.0066063 -0.0136811,0.0066063z"/>
  <path class="fil0" d="M1.38028 0.708071c-0.00775197,0 -0.0148622,-0.0052126 -0.0170709,-0.0132244 -0.0189724,-0.068748 -0.0509528,-0.131941 -0.095063,-0.187815 -0.00617323,-0.00779921 -0.00497244,-0.0192362 0.00267717,-0.0255276 0.00762992,-0.00630315 0.0187913,-0.0050748 0.0249567,0.00273228 0.047122,0.0597008 0.0813071,0.127252 0.101614,0.200752 0.00265748,0.00966142 -0.00283858,0.019685 -0.0122638,0.0224134 -0.00164567,0.000444882 -0.00325984,0.000669291 -0.00485039,0.000669291z"/>
  <path class="fil0" d="M1.27716 1.2061c-0.00399213,0 -0.00802756,-0.00136614 -0.0113425,-0.00420079 -0.00752362,-0.00639764 -0.00856299,-0.0178504 -0.00229134,-0.0255748 0.0361378,-0.0444606 0.0646732,-0.0942441 0.0848583,-0.147976 0.00351575,-0.00935039 0.0137795,-0.0140394 0.0229213,-0.0104331 0.00916142,0.00358661 0.0137323,0.0140984 0.0102244,0.0234488 -0.0215827,0.0574213 -0.0520945,0.110646 -0.090685,0.158165 -0.0035315,0.00434252 -0.00861024,0.00657087 -0.013685,0.00657087z"/>
  <path class="fil0" d="M0.919 1.401c-0.00900394,0 -0.0167283,-0.00700787 -0.0176496,-0.016378 -0.00096063,-0.0099685 0.00617323,-0.0188701 0.0159291,-0.0198465 0.100051,-0.0101299 0.194398,-0.0497008 0.272866,-0.1145 0.00762992,-0.00629921 0.0187913,-0.0050748 0.0249567,0.00273622 0.00616535,0.00780709 0.00497244,0.0192362 -0.00265748,0.0255276 -0.0838622,0.0692441 -0.184728,0.111539 -0.291669,0.122362 -0.000590551,7.48031e-005 -0.00119291,9.84252e-005 -0.00177559,9.84252e-005z"/>
  <path class="fil0" d="M0.812543 1.401c-0.000598425,0 -0.00120079,-2.3622e-005 -0.00177559,-8.26772e-005 -0.106961,-0.0108228 -0.207811,-0.053126 -0.291669,-0.122362 -0.00762992,-0.00629921 -0.00880709,-0.0177283 -0.00267717,-0.0255276 0.00617323,-0.00780315 0.0173465,-0.00902756 0.0249764,-0.00273622 0.0784685,0.0647756 0.172815,0.10437 0.272866,0.114496 0.00974016,0.000980315 0.0168898,0.00988189 0.0159134,0.0198465 -0.000905512,0.00935827 -0.00862992,0.0163661 -0.0176339,0.0163661z"/>
  <path class="fil0" d="M0.454382 1.2061c-0.00511024,0 -0.0101654,-0.00222047 -0.0136772,-0.00656299 -0.0386142,-0.0475197 -0.0691024,-0.10072 -0.090685,-0.158142 -0.00351575,-0.00935039 0.00105906,-0.0198701 0.0102047,-0.0234528 0.00914567,-0.00358661 0.0194252,0.00107874 0.0229409,0.010437 0.020185,0.0537323 0.0487205,0.103516 0.0848346,0.147976 0.00627165,0.00770079 0.00525591,0.0191535 -0.00229134,0.0255748 -0.00329921,0.00279528 -0.00731496,0.00416929 -0.0113268,0.00416929z"/>
  <path class="fil0" d="M0.351272 0.708071c-0.00159843,0 -0.00323622,-0.000224409 -0.00482677,-0.000692913 -0.00944094,-0.00273228 -0.014937,-0.012752 -0.0122638,-0.0224094 0.0203071,-0.0735039 0.0544843,-0.141031 0.101591,-0.200756 0.00617323,-0.00779921 0.0173465,-0.00902362 0.0249764,-0.00273228 0.00762992,0.00629134 0.00880709,0.0177283 0.00265748,0.0255276 -0.0440866,0.055874 -0.0760748,0.119067 -0.095063,0.187819 -0.00219685,0.00800787 -0.00932677,0.0132441 -0.0170709,0.0132441z"/>
  <path class="fil0" d="M0.524366 0.436201c-0.00509449,0 -0.0101654,-0.00221654 -0.0136575,-0.00655906 -0.00627165,-0.00770079 -0.00525591,-0.0191535 0.00229134,-0.0255551 0.0850433,-0.0722559 0.188008,-0.116307 0.297748,-0.127413 0.00977953,-0.000976378 0.0184488,0.00631496 0.0194094,0.0162835 0.000980315,0.00998031 -0.00617323,0.0188661 -0.0159173,0.0198701 -0.102669,0.0103898 -0.198984,0.0516142 -0.278531,0.119224 -0.00329921,0.00276378 -0.00733465,0.00414961 -0.0113425,0.00414961z"/>
  <path class="fil0" d="M0.865776 0.399429c-0.0391496,0 -0.0710197,-0.0325866 -0.0710197,-0.072626l0 -0.0954213c-0.0357992,-0.0254291 -0.0559055,-0.067748 -0.0529685,-0.112909 0.00409055,-0.0633307 0.0538898,-0.114154 0.115823,-0.118201 0.0347598,-0.00227953 0.0678504,0.0098189 0.0931614,0.0341063 0.0249567,0.0239449 0.0392717,0.0577323 0.0392717,0.0927205 0,0.0416102 -0.0201654,0.0806339 -0.053248,0.104268l0 0.0954449c0,0.0400315 -0.0318701,0.0726181 -0.0710197,0.0726181zm3.93701e-005 -0.363138c-0.00198031,0 -0.00393307,5.90551e-005 -0.00593307,0.000181102 -0.0442087,0.00289764 -0.0797441,0.0391654 -0.0826811,0.084378 -0.00225591,0.0348425 0.0146811,0.0673661 0.044185,0.0848307 0.00549606,0.00324409 0.00887008,0.00923622 0.00887008,0.0157126l0 0.105386c0,0.0200315 0.0159291,0.036315 0.0354961,0.036315 0.0195669,0 0.0355,-0.0162835 0.0355,-0.036315l0 -0.105386c0,-0.00647638 0.00337402,-0.0124685 0.00884252,-0.0157126 0.0273937,-0.0161929 0.0444055,-0.0463386 0.0444055,-0.0786142 0,-0.0253701 -0.00996063,-0.0488819 -0.0280512,-0.0662244 -0.0166102,-0.0159488 -0.0379528,-0.0245512 -0.0606339,-0.0245512z"/>
  <path class="fil0" d="M0.865898 1.68848c-0.00275591,0 -0.00549606,-8.26772e-005 -0.0082874,-0.000259843 -0.0619331,-0.00405906 -0.111732,-0.054874 -0.115823,-0.118205 -0.00291339,-0.0451535 0.0171693,-0.0874803 0.0529685,-0.112909l0 -0.0954449c0,-0.0400394 0.0318701,-0.072622 0.0710197,-0.072622 0.0391496,0 0.0710197,0.0325827 0.0710197,0.072622l0 0.0954449c0.0330827,0.0236339 0.053248,0.0626811 0.053248,0.104272 0,0.0349843 -0.014315,0.0687717 -0.0392717,0.0927165 -0.0233031,0.0223661 -0.0531732,0.0343858 -0.084874,0.0343858zm-0.000122047 -0.363114c-0.0195669,0 -0.0355,0.0162795 -0.0355,0.036311l0 0.105386c0,0.00647638 -0.00337008,0.0124685 -0.00884252,0.0157126 -0.0295315,0.0174606 -0.0464646,0.0499803 -0.0442087,0.0848307 0.00291339,0.0451929 0.0384803,0.0814646 0.0826811,0.084378 0.0248583,0.00161024 0.0485157,-0.0070315 0.0665906,-0.0243661 0.0180866,-0.0173622 0.0280472,-0.0408819 0.0280472,-0.0662283 0,-0.0322756 -0.0170079,-0.0624094 -0.0444016,-0.0786142 -0.00547244,-0.00324409 -0.00884646,-0.00923622 -0.00884646,-0.0157126l0 -0.105386c-1.9685e-005,-0.0200315 -0.0159528,-0.036311 -0.0355197,-0.036311z"/>
  <path class="fil0" d="M1.22354 0.550925c-0.018189,0 -0.0363583,-0.00707087 -0.0502165,-0.0212362 -0.0134173,-0.0137165 -0.0208031,-0.0319528 -0.0208031,-0.0513504 0,-0.0194016 0.00738583,-0.0376378 0.0208031,-0.0513701l0.0659724 -0.0674882c-0.00772835,-0.0438661 0.00732677,-0.0883346 0.0406142,-0.118146 0.0466811,-0.041811 0.117024,-0.0417362 0.16363,0.000181102 0.0261575,0.0235394 0.0411732,0.0560157 0.0422677,0.0914961 0.00110236,0.0349646 -0.0121417,0.0692205 -0.0363189,0.0939567l0 0 0 0c-0.028752,0.0294291 -0.0700236,0.0424409 -0.109756,0.0352323l-0.0659882 0.0674882c-0.0138465,0.0141654 -0.0320433,0.0212362 -0.0502047,0.0212362zm0.138067 -0.304594c-0.0208425,0 -0.0416929,0.00744094 -0.0583189,0.0223346 -0.0256929,0.0230039 -0.0361969,0.0582402 -0.0273937,0.0919409 0.0016378,0.00627559 -0.00011811,0.012937 -0.00459449,0.0175197l-0.0728622 0.0745197c-0.00670866,0.00684646 -0.0103976,0.0159724 -0.0103976,0.0256772 0,0.00970079 0.00368898,0.0188071 0.0103976,0.0256772 0.00670866,0.00686614 0.0156142,0.0106339 0.0251142,0.0106339 0.00948819,0 0.0183937,-0.00376772 0.0251024,-0.0106339l0.0728583 -0.0745197c0.00449213,-0.00458268 0.0110276,-0.00637795 0.0171339,-0.00469291 0.0305709,0.00835827 0.0634331,-0.000653543 0.0857323,-0.0234724l0 0c0.0175315,-0.0179291 0.026752,-0.0417717 0.0259606,-0.0671181 -0.000775591,-0.0253307 -0.0115236,-0.0485591 -0.0302441,-0.0653701 -0.0166575,-0.0149961 -0.0375827,-0.0224961 -0.0584882,-0.0224961z"/>
  <path class="fil0" d="M0.369858 1.47843c-0.0013189,0 -0.00263386,-2.3622e-005 -0.00392913,-6.29921e-005 -0.034685,-0.00114173 -0.0664488,-0.0165039 -0.0894488,-0.0432598 -0.0409685,-0.0476654 -0.0410512,-0.11961 -0.000181102,-0.16735 0.0291535,-0.0340354 0.0726417,-0.049437 0.115528,-0.0415276l0.0659882 -0.0674882c0.0133937,-0.0137165 0.0312244,-0.0212717 0.0502126,-0.0212717 0.0189882,0 0.0367953,0.00756299 0.0502165,0.0212717 0.0276929,0.0283268 0.0276929,0.0743976 0,0.102701l-0.0659882 0.0675079c0.00704724,0.0406496 -0.00566929,0.0828307 -0.0344409,0.112236 -0.0232835,0.0238189 -0.055126,0.0372441 -0.0879567,0.0372441zm-0.000133858 -0.21789c-0.0252362,0 -0.0494961,0.0110197 -0.0667244,0.0311496 -0.0291772,0.0340748 -0.0291299,0.0854173 0.000141732,0.119453 0.0164528,0.0191299 0.0391496,0.0301181 0.0639094,0.0309291 0.0248228,0.000877953 0.0481024,-0.00861811 0.0656339,-0.0265551l0 0c0.0223228,-0.0228189 0.0311299,-0.0564213 0.0229646,-0.0876811 -0.0016378,-0.00627953 0.00011811,-0.0129409 0.00457087,-0.0175236l0.0728622 -0.0745157c0.0138386,-0.0141654 0.0138386,-0.0372087 0,-0.0513701 -0.00670866,-0.00684646 -0.0156142,-0.0106378 -0.0250984,-0.0106378 -0.00948819,0 -0.0184055,0.00379134 -0.0251142,0.0106378l-0.0728622 0.0745197c-0.00449213,0.00458268 -0.0110276,0.00637795 -0.0171102,0.00470472 -0.0076811,-0.00208661 -0.0154921,-0.00311024 -0.0231732,-0.00311024z"/>
  <path class="fil0" d="M0.508012 0.550925c-0.018185,0 -0.0363583,-0.00707087 -0.0502126,-0.0212362l-0.0659882 -0.0674882c-0.0428858,0.00790945 -0.086374,-0.00747638 -0.115528,-0.0415236 -0.0408937,-0.0477402 -0.0407874,-0.119697 0.000181102,-0.167339 0.0230039,-0.0267559 0.0547717,-0.0421181 0.0894488,-0.0432598 0.0342008,-0.0011378 0.067685,0.0124331 0.0918858,0.0371693l0 0c0.028752,0.0294055 0.0414685,0.0715984 0.0344409,0.112232l0.0659882 0.0674882c0.0276929,0.0283268 0.0276929,0.0743976 0,0.10272 -0.0138583,0.0141654 -0.0320512,0.0212362 -0.0502165,0.0212362zm-0.110539 -0.126744c0.00464961,0 0.00918504,0.00187008 0.0125591,0.00532283l0.0728583 0.0745157c0.0138425,0.0141654 0.0363583,0.0141654 0.0502165,0 0.0138386,-0.0141378 0.0138386,-0.037189 0,-0.0513504l-0.0728622 -0.0745197c-0.00447638,-0.00458268 -0.00623228,-0.011252 -0.0045748,-0.0175197 0.00815354,-0.0312638 -0.000641732,-0.0648622 -0.0229606,-0.0876811 -0.0175315,-0.0179291 -0.040752,-0.0273504 -0.0656339,-0.0265551 -0.0247598,0.000814961 -0.0474606,0.0117992 -0.0639094,0.0309291 -0.0292756,0.0340079 -0.029311,0.0853543 -0.000145669,0.119449 0.0225039,0.0262835 0.0569685,0.0370197 0.0899094,0.0280157 0.00149606,-0.000397638 0.00302756,-0.000606299 0.00454331,-0.000606299z"/>
  <path class="fil0" d="M1.36161 1.47839c-0.0292126,0 -0.0584016,-0.010437 -0.0817047,-0.0312992 -0.0332874,-0.029811 -0.0483425,-0.0742953 -0.0406142,-0.11815l-0.0659724 -0.0674843c-0.0134173,-0.0137165 -0.0208031,-0.0319567 -0.0208031,-0.0513701 0,-0.0194173 0.00738583,-0.0376378 0.0208031,-0.0513543 0.0133976,-0.0137165 0.0312283,-0.0212717 0.0502165,-0.0212717 0.0189843,0 0.0367953,0.00756299 0.0502126,0.0212717l0.0659882 0.0674882c0.0397323,-0.00721654 0.0810039,0.00580709 0.109756,0.0352126 0.0241772,0.0247362 0.037437,0.0589921 0.0363189,0.0939567 -0.00111811,0.0354724 -0.0161339,0.0679567 -0.0422677,0.0914921 -0.0233346,0.0210118 -0.0526417,0.0315079 -0.0819331,0.0315079zm-0.138067 -0.304594c-0.00950394,0 -0.0184055,0.00379134 -0.0251142,0.0106378 -0.00670866,0.00687008 -0.0104016,0.0159724 -0.0104016,0.0256772 0,0.00970472 0.00369291,0.0188307 0.0104016,0.0256772l0.0728583 0.0745197c0.00449213,0.00457874 0.00624803,0.011248 0.00459843,0.0175197 -0.0087874,0.0337008 0.00169685,0.0689331 0.0273937,0.0919409 0.0333465,0.0298504 0.0835591,0.0297874 0.116803,-0.000125984 0.0187283,-0.0168268 0.0294685,-0.0400394 0.0302441,-0.0653701 0.00080315,-0.0253425 -0.00842913,-0.049189 -0.0259567,-0.0671181 -0.0223031,-0.0228189 -0.0551654,-0.0318307 -0.0857362,-0.0234724 -0.00612992,0.00166929 -0.0126575,-0.000122047 -0.0171299,-0.00470472l-0.0728622 -0.0745197c-0.00670866,-0.00687008 -0.015622,-0.0106614 -0.0250984,-0.0106614z"/>
  <path class="fil0" d="M1.55456 0.236004c-0.048937,0 -0.088752,-0.0407323 -0.088752,-0.0907756 0,-0.0500472 0.039815,-0.0907795 0.088752,-0.0907795 0.0489606,0 0.0887677,0.0407323 0.0887677,0.0907795 0,0.0500433 -0.0398071,0.0907756 -0.0887677,0.0907756zm0 -0.145248c-0.0293701,0 -0.053248,0.0244291 -0.053248,0.0544646 0,0.0300354 0.023878,0.0544646 0.053248,0.0544646 0.0293937,0 0.0532717,-0.0244291 0.0532717,-0.0544646 0,-0.0300315 -0.023878,-0.0544646 -0.0532717,-0.0544646z"/>
  <path class="fil0" d="M0.187606 1.70666c-0.0685315,0 -0.124276,-0.0570157 -0.124276,-0.127091 0,-0.0700748 0.0557441,-0.127091 0.124276,-0.127091 0.0685433,0 0.124287,0.0570157 0.124287,0.127091 0,0.0700748 -0.0557441,0.127091 -0.124287,0.127091zm0 -0.21789c-0.0489409,0 -0.0887559,0.0407323 -0.0887559,0.0907756 0,0.0500433 0.039815,0.0907795 0.0887559,0.0907795 0.0489606,0 0.0887677,-0.0407362 0.0887677,-0.0907795 0,-0.0500433 -0.0398071,-0.0907756 -0.0887677,-0.0907756z"/>
 </g>
</svg>
